<svg width="31" height="31" viewBox="0 0 31 31" fill="none" xmlns="http://www.w3.org/2000/svg">
<path d="M10.1129 20.8889C7.3351 18.1056 5.19883 14.7491 3.85353 11.0541C3.11341 9.03394 3.79153 6.81485 5.31312 5.29327L6.25474 4.35294C6.50789 4.09927 6.80858 3.89803 7.1396 3.76072C7.47063 3.62341 7.82548 3.55273 8.18385 3.55273C8.54222 3.55273 8.89707 3.62341 9.22809 3.76072C9.55911 3.89803 9.8598 4.09927 10.1129 4.35294L12.3178 6.55781C12.5715 6.81096 12.7727 7.11165 12.91 7.44267C13.0473 7.77369 13.118 8.12855 13.118 8.48691C13.118 8.84528 13.0473 9.20014 12.91 9.53116C12.7727 9.86218 12.5715 10.1629 12.3178 10.416L11.7753 10.9585C11.5582 11.1756 11.3859 11.4334 11.2684 11.7171C11.1509 12.0007 11.0904 12.3048 11.0904 12.6119C11.0904 12.9189 11.1509 13.223 11.2684 13.5067C11.3859 13.7903 11.5582 14.0481 11.7753 14.2652L16.7353 19.2265C16.9524 19.4436 17.2102 19.6159 17.4939 19.7334C17.7775 19.8509 18.0816 19.9114 18.3887 19.9114C18.6957 19.9114 18.9998 19.8509 19.2835 19.7334C19.5671 19.6159 19.8249 19.4436 20.042 19.2265L20.5858 18.684C20.8389 18.4303 21.1396 18.2291 21.4706 18.0918C21.8017 17.9545 22.1565 17.8838 22.5149 17.8838C22.8733 17.8838 23.2281 17.9545 23.5591 18.0918C23.8901 18.2291 24.1908 18.4303 24.444 18.684L26.6489 20.8889C26.9025 21.142 27.1038 21.4427 27.2411 21.7737C27.3784 22.1047 27.4491 22.4596 27.4491 22.818C27.4491 23.1763 27.3784 23.5312 27.2411 23.8622C27.1038 24.1932 26.9025 24.4939 26.6489 24.7471L25.7085 25.6874C24.1869 27.2103 21.9679 27.8884 19.9477 27.1483C16.2527 25.803 12.8962 23.6667 10.1129 20.8889Z" stroke="black" stroke-width="1.5" stroke-linejoin="round"/>
</svg>
