<svg width="39" height="39" viewBox="0 0 39 39" fill="none" xmlns="http://www.w3.org/2000/svg">
<path d="M26.5 19.875C30.3578 21.7974 33 25.8063 33 31.25V37.75H7V31.25C7 25.7997 9.65038 21.7844 13.5 19.875M29.75 11.75C29.75 13.0304 29.4978 14.2982 29.0078 15.4812C28.5178 16.6641 27.7997 17.7389 26.8943 18.6443C25.9889 19.5497 24.9141 20.2678 23.7312 20.7578C22.5482 21.2478 21.2804 21.5 20 21.5C17.4141 21.5 14.9342 20.4728 13.1057 18.6443C11.2772 16.8158 10.25 14.3359 10.25 11.75M29.75 11.75C29.75 10.4696 29.4978 9.20176 29.0078 8.01884C28.5178 6.83591 27.7997 5.76108 26.8943 4.85571C25.9889 3.95034 24.9141 3.23216 23.7312 2.74217C22.5482 2.25219 21.2804 2 20 2C17.4141 2 14.9342 3.02723 13.1057 4.85571C11.2772 6.68419 10.25 9.16414 10.25 11.75M29.75 11.75C27.3125 11.75 24.875 12.335 21.625 8.5C18.375 12.335 14.3125 13.375 10.25 11.75M11.875 21.5L20.0406 30.0426L28.125 21.5M20 29.625V37.75" stroke="black" stroke-width="1.5"/>
</svg>
