<svg width="29" height="29" viewBox="0 0 29 29" fill="none" xmlns="http://www.w3.org/2000/svg">
<path d="M14.3992 23.7C13.6638 23.7 13.0784 23.9 12.643 24.3C12.2076 24.7 11.4607 24.9 10.4023 24.9C9.34392 24.9 8.59702 24.7 8.16162 24.3C7.72622 23.9 7.14082 23.7 6.40542 23.7C5.80222 23.7 5.33142 23.8311 4.99302 24.0933C4.65462 24.3557 4.20002 24.5669 3.62922 24.7269C3.39382 24.7915 3.18002 24.7446 2.98782 24.5862C2.79542 24.4276 2.69922 24.2207 2.69922 23.9655C2.69922 23.7023 2.79042 23.4746 2.97282 23.2824C3.15502 23.09 3.36532 22.9369 3.60372 22.8231C3.96692 22.6507 4.33662 22.4538 4.71282 22.2324C5.08882 22.0108 5.65302 21.9 6.40542 21.9C7.43302 21.9 8.16452 22.1 8.59992 22.5C9.03532 22.9 9.63612 23.1 10.4023 23.1C11.1685 23.1 11.7693 22.9 12.2047 22.5C12.6401 22.1 13.3716 21.9 14.3992 21.9C15.4268 21.9 16.1622 22.1 16.6054 22.5C17.0484 22.9 17.653 23.1 18.4192 23.1C19.1854 23.1 19.7823 22.9 20.2099 22.5C20.6377 22.1 21.3654 21.9 22.393 21.9C23.1454 21.9 23.7096 22.0108 24.0856 22.2324C24.4618 22.4538 24.8315 22.6507 25.1947 22.8231C25.4331 22.9369 25.6434 23.09 25.8256 23.2824C26.008 23.4746 26.0992 23.7023 26.0992 23.9655C26.0992 24.2207 26.003 24.4276 25.8106 24.5862C25.6184 24.7446 25.4046 24.7915 25.1692 24.7269C24.5984 24.5669 24.1438 24.3557 23.8054 24.0933C23.467 23.8311 22.9962 23.7 22.393 23.7C21.6576 23.7 21.0761 23.9 20.6485 24.3C20.2207 24.7 19.4776 24.9 18.4192 24.9C17.3608 24.9 16.61 24.7 16.1668 24.3C15.7238 23.9 15.1346 23.7 14.3992 23.7ZM14.3992 18.3C13.6392 18.3 13.0569 18.5 12.6523 18.9C12.2477 19.3 11.4977 19.5 10.4023 19.5C9.30692 19.5 8.55072 19.3 8.13372 18.9C7.71692 18.5 7.14082 18.3 6.40542 18.3C5.80222 18.3 5.33142 18.4311 4.99302 18.6933C4.65462 18.9557 4.20002 19.1669 3.62922 19.3269C3.39382 19.3915 3.18002 19.3446 2.98782 19.1862C2.79542 19.0276 2.69922 18.8207 2.69922 18.5655C2.69922 18.3023 2.79042 18.0746 2.97282 17.8824C3.15502 17.69 3.36532 17.5369 3.60372 17.4231C3.96692 17.2507 4.33662 17.0538 4.71282 16.8324C5.08882 16.6108 5.65302 16.5 6.40542 16.5C7.43302 16.5 8.16762 16.7 8.60922 17.1C9.05082 17.5 9.64852 17.7 10.4023 17.7C11.1685 17.7 11.7693 17.5 12.2047 17.1C12.6401 16.7 13.3716 16.5 14.3992 16.5C15.4268 16.5 16.1583 16.7 16.5937 17.1C17.0291 17.5 17.6299 17.7 18.3961 17.7C19.1623 17.7 19.7631 17.5 20.1985 17.1C20.6339 16.7 21.3654 16.5 22.393 16.5C23.1454 16.5 23.7096 16.6108 24.0856 16.8324C24.4618 17.0538 24.8315 17.2507 25.1947 17.4231C25.4331 17.5369 25.6434 17.69 25.8256 17.8824C26.008 18.0746 26.0992 18.3023 26.0992 18.5655C26.0992 18.8207 26.003 19.0276 25.8106 19.1862C25.6184 19.3446 25.4046 19.3915 25.1692 19.3269C24.5984 19.1669 24.1438 18.9557 23.8054 18.6933C23.467 18.4311 22.9962 18.3 22.393 18.3C21.6576 18.3 21.0853 18.5 20.6761 18.9C20.2669 19.3 19.5146 19.5 18.4192 19.5C17.3484 19.5 16.5946 19.3 16.1578 18.9C15.7208 18.5 15.1346 18.3 14.3992 18.3ZM8.80992 13.5414L12.7423 9.60931L11.2192 8.08621C10.6962 7.56301 10.1658 7.16411 9.62802 6.88951C9.09042 6.61491 8.45852 6.42761 7.73232 6.32761C7.41692 6.27081 7.14312 6.12511 6.91092 5.89051C6.67852 5.65571 6.56232 5.38071 6.56232 5.06551C6.56232 4.73771 6.67962 4.46341 6.91422 4.24261C7.14882 4.02201 7.42382 3.92781 7.73922 3.96001C8.78082 4.06001 9.67622 4.27541 10.4254 4.60621C11.1746 4.93701 11.9177 5.47081 12.6547 6.20761L19.9885 13.5414C19.7407 13.7154 19.4953 13.852 19.2523 13.9512C19.0091 14.0504 18.7276 14.1 18.4078 14.1C17.78 14.1 17.2311 13.9 16.7611 13.5C16.2911 13.1 15.5038 12.9 14.3992 12.9C13.2946 12.9 12.5073 13.1 12.0373 13.5C11.5673 13.9 11.0184 14.1 10.3906 14.1C10.0708 14.1 9.78932 14.0504 9.54612 13.9512C9.30312 13.852 9.05772 13.7154 8.80992 13.5414ZM19.8775 4.01551C20.6483 4.01551 21.3026 4.28741 21.8404 4.83121C22.378 5.37501 22.6468 6.02611 22.6468 6.78451C22.6468 7.55531 22.378 8.20961 21.8404 8.74741C21.3026 9.28501 20.6483 9.55381 19.8775 9.55381C19.1069 9.55381 18.4527 9.28501 17.9149 8.74741C17.3773 8.20961 17.1085 7.55531 17.1085 6.78451C17.1085 6.02611 17.3773 5.37501 17.9149 4.83121C18.4527 4.28741 19.1069 4.01551 19.8775 4.01551Z" fill="#2B3037"/>
</svg>
